<?xml version="1.0" standalone="no"?>
<!DOCTYPE svg PUBLIC "-//W3C//DTD SVG 20010904//EN"
 "http://www.w3.org/TR/2001/REC-SVG-20010904/DTD/svg10.dtd">
<svg version="1.0" xmlns="http://www.w3.org/2000/svg"
 width="260.000000pt" height="260.000000pt" viewBox="0 0 260.000000 260.000000"
 preserveAspectRatio="xMidYMid meet">
<metadata>
Created by potrace 1.14, written by Peter Selinger 2001-2017
</metadata>
<g transform="translate(0.000000,260.000000) scale(0.100000,-0.100000)"
fill="#000000" stroke="none">
<path d="M0 1300 l0 -1300 1300 0 1300 0 0 1300 0 1300 -1300 0 -1300 0 0
-1300z m710 413 c59 -16 132 -58 168 -96 l22 -23 -34 -33 -34 -33 -48 35 c-75
52 -109 62 -214 62 -84 0 -102 -3 -157 -29 -72 -33 -134 -94 -166 -164 -18
-38 -22 -66 -22 -147 0 -89 3 -106 28 -157 33 -68 90 -121 166 -156 48 -23 70
-27 151 -27 83 0 102 3 150 27 30 15 67 37 83 50 l27 22 35 -34 c33 -32 34
-34 17 -53 -32 -36 -98 -76 -163 -97 -55 -19 -80 -22 -174 -18 -98 4 -118 8
-178 36 -93 43 -169 117 -215 211 -37 74 -37 76 -37 195 0 115 2 124 32 189
58 123 178 220 303 246 110 22 162 21 260 -6z m900 -33 l0 -50 -150 0 -150 0
0 -395 0 -395 -55 0 -55 0 0 395 0 395 -150 0 -150 0 0 50 0 50 355 0 355 0 0
-50z m585 26 c71 -25 139 -77 171 -132 37 -63 46 -190 19 -261 -21 -53 -84
-127 -131 -151 l-31 -17 103 -145 c57 -80 103 -148 104 -152 0 -5 -26 -8 -58
-8 l-58 0 -99 140 -99 141 -144 -3 -144 -3 -1 -135 -2 -135 -52 -3 -53 -3 0
446 0 447 213 -4 c167 -4 223 -8 262 -22z"/>
<path d="M1830 1629 c0 -2 -1 -95 -3 -207 l-2 -202 145 0 c80 0 161 5 181 10
94 26 143 94 142 195 -1 92 -36 146 -118 181 -29 12 -80 18 -192 22 -84 2
-153 3 -153 1z"/>
</g>
</svg>
