<?xml version="1.0" standalone="no"?>
<!DOCTYPE svg PUBLIC "-//W3C//DTD SVG 20010904//EN"
 "http://www.w3.org/TR/2001/REC-SVG-20010904/DTD/svg10.dtd">
<svg version="1.0" xmlns="http://www.w3.org/2000/svg"
 width="260.000000pt" height="260.000000pt" viewBox="0 0 260.000000 260.000000"
 preserveAspectRatio="xMidYMid meet">
<metadata>
Created by potrace 1.14, written by Peter Selinger 2001-2017
</metadata>
<g transform="translate(0.000000,260.000000) scale(0.100000,-0.100000)"
fill="#000000" stroke="none">
<path d="M1149 2203 c-155 -265 -264 -478 -298 -580 -12 -40 -23 -76 -23 -80
0 -4 -5 -19 -10 -33 -6 -14 -12 -38 -15 -55 -7 -42 -11 -60 -13 -60 -4 0 -18
-119 -20 -156 0 -8 -25 -33 -55 -55 -86 -61 -265 -249 -342 -359 -62 -88 -92
-137 -171 -275 -11 -19 -61 -106 -111 -194 -51 -87 -90 -165 -87 -173 5 -12
62 -14 388 -10 211 3 401 7 423 11 149 22 310 65 405 108 67 30 95 31 146 5
34 -17 168 -64 204 -70 14 -3 32 -8 40 -11 8 -3 31 -7 51 -10 20 -3 42 -8 50
-10 8 -3 39 -8 69 -11 30 -3 82 -8 115 -11 106 -11 395 -10 395 1 0 6 4 4 9
-3 4 -8 12 -14 16 -14 4 0 12 6 16 14 5 7 9 9 9 3 0 -6 49 -10 125 -11 97 0
125 3 130 13 3 8 -45 101 -107 206 -61 106 -119 206 -128 222 -47 82 -94 161
-99 165 -3 3 -21 28 -40 55 -81 118 -219 263 -331 348 -36 27 -64 53 -62 58 5
21 -32 219 -58 309 -50 167 -116 307 -286 602 -121 210 -171 288 -184 288 -13
0 -55 -64 -151 -227z m223 -469 c56 -106 145 -350 133 -362 -3 -3 -29 -1 -58
5 -54 12 -239 10 -316 -2 -49 -8 -49 -22 -4 120 46 148 152 360 176 352 7 -2
38 -53 69 -113z m8 -648 c68 -7 103 -16 124 -32 18 -13 19 -18 7 -66 -23 -94
-71 -179 -143 -252 l-67 -69 -33 29 c-82 70 -157 192 -179 290 -12 52 -11 57
7 67 30 18 96 33 155 36 29 1 55 4 57 6 2 2 9 2 15 0 7 -2 32 -6 57 -9z m-545
-273 c33 -87 106 -203 154 -247 29 -26 26 -43 -6 -49 -16 -3 -39 -8 -53 -11
-25 -6 -53 -12 -100 -22 -61 -12 -307 -25 -323 -17 -7 4 29 80 44 93 3 3 16
23 29 44 57 94 213 271 230 261 4 -2 15 -26 25 -52z m1014 2 c96 -104 253
-327 239 -341 -7 -6 -156 -6 -203 0 -88 11 -151 20 -155 21 -3 1 -23 5 -45 9
-22 4 -52 12 -67 18 l-26 10 50 61 c47 59 141 234 141 263 0 24 12 16 66 -41z"/>
</g>
</svg>
